<?xml version="1.0" encoding="UTF-8"?>
<svg width="660px" height="288px" viewBox="0 0 660 288" version="1.1" xmlns="http://www.w3.org/2000/svg" xmlns:xlink="http://www.w3.org/1999/xlink">
    <!-- Generator: Sketch 52.6 (67491) - http://www.bohemiancoding.com/sketch -->
    <title>Icons</title>
    <desc>Created with Sketch.</desc>
    <defs>
        <path d="M10,0 L650,0 C655.522847,-1.01453063e-15 660,4.4771525 660,10 L660,217 L0,217 L0,10 C-6.76353751e-16,4.4771525 4.4771525,1.01453063e-15 10,0 Z" id="path-1"></path>
        <filter x="-6.2%" y="-8.6%" width="115.6%" height="117.1%" filterUnits="objectBoundingBox" id="filter-3">
            <feOffset dx="0" dy="2" in="SourceAlpha" result="shadowOffsetOuter1"></feOffset>
            <feGaussianBlur stdDeviation="3" in="shadowOffsetOuter1" result="shadowBlurOuter1"></feGaussianBlur>
            <feColorMatrix values="0 0 0 0 0.503242022   0 0 0 0 0.725438151   0 0 0 0 0.938323767  0 0 0 0.0323539402 0" type="matrix" in="shadowBlurOuter1" result="shadowMatrixOuter1"></feColorMatrix>
            <feMerge>
                <feMergeNode in="shadowMatrixOuter1"></feMergeNode>
                <feMergeNode in="SourceGraphic"></feMergeNode>
            </feMerge>
        </filter>
        <path d="M243.992806,1.71265394 L243.992806,59.9443555 C243.992806,60.8935796 241.842054,61.637931 239.176207,61.637931 L4.81742025,61.637931 C2.17046799,61.637931 0,60.9032656 0,59.9637274 L0,1.71265394 C0,0.763429803 2.15157292,0 4.81742025,0 L239.176207,0 C241.842054,0 243.992806,0.763429803 243.992806,1.71265394" id="path-4"></path>
        <filter x="-5.3%" y="-17.8%" width="110.7%" height="142.2%" filterUnits="objectBoundingBox" id="filter-5">
            <feOffset dx="0" dy="2" in="SourceAlpha" result="shadowOffsetOuter1"></feOffset>
            <feGaussianBlur stdDeviation="4" in="shadowOffsetOuter1" result="shadowBlurOuter1"></feGaussianBlur>
            <feColorMatrix values="0 0 0 0 0   0 0 0 0 0   0 0 0 0 0  0 0 0 0.104987545 0" type="matrix" in="shadowBlurOuter1"></feColorMatrix>
        </filter>
        <polygon id="path-6" points="0 0 334 0 334 26.9190268 0 26.9190268"></polygon>
        <filter x="-54.3%" y="-28.5%" width="208.7%" height="157.1%" filterUnits="objectBoundingBox" id="filter-8">
            <feOffset dx="0" dy="2" in="SourceAlpha" result="shadowOffsetOuter1"></feOffset>
            <feGaussianBlur stdDeviation="13.5" in="shadowOffsetOuter1" result="shadowBlurOuter1"></feGaussianBlur>
            <feColorMatrix values="0 0 0 0 0.780957696   0 0 0 0 0.780957696   0 0 0 0 0.780957696  0 0 0 0.5 0" type="matrix" in="shadowBlurOuter1" result="shadowMatrixOuter1"></feColorMatrix>
            <feMerge>
                <feMergeNode in="shadowMatrixOuter1"></feMergeNode>
                <feMergeNode in="SourceGraphic"></feMergeNode>
            </feMerge>
        </filter>
        <radialGradient cx="14.4440358%" cy="0%" fx="14.4440358%" fy="0%" r="163.89592%" gradientTransform="translate(0.144440,0.000000),scale(1.000000,0.618647),rotate(80.488972),translate(-0.144440,-0.000000)" id="radialGradient-9">
            <stop stop-color="#0065E6" offset="0%"></stop>
            <stop stop-color="#1D547D" offset="100%"></stop>
        </radialGradient>
        <radialGradient cx="14.4440358%" cy="0%" fx="14.4440358%" fy="0%" r="106.736412%" gradientTransform="translate(0.144440,0.000000),scale(0.725694,1.000000),rotate(69.535239),translate(-0.144440,-0.000000)" id="radialGradient-10">
            <stop stop-color="#0065E6" offset="0%"></stop>
            <stop stop-color="#1D547D" offset="100%"></stop>
        </radialGradient>
        <filter x="-22.3%" y="-18.5%" width="144.5%" height="137.0%" filterUnits="objectBoundingBox" id="filter-11">
            <feOffset dx="0" dy="2" in="SourceAlpha" result="shadowOffsetOuter1"></feOffset>
            <feGaussianBlur stdDeviation="9.5" in="shadowOffsetOuter1" result="shadowBlurOuter1"></feGaussianBlur>
            <feColorMatrix values="0 0 0 0 0.85063244   0 0 0 0 0.788657504   0 0 0 0 0.788657504  0 0 0 0.5 0" type="matrix" in="shadowBlurOuter1" result="shadowMatrixOuter1"></feColorMatrix>
            <feMerge>
                <feMergeNode in="shadowMatrixOuter1"></feMergeNode>
                <feMergeNode in="SourceGraphic"></feMergeNode>
            </feMerge>
        </filter>
        <linearGradient x1="50%" y1="100%" x2="55.5303908%" y2="0%" id="linearGradient-12">
            <stop stop-color="#4A99E9" offset="0%"></stop>
            <stop stop-color="#2D90F4" offset="100%"></stop>
        </linearGradient>
    </defs>
    <g id="Page-1" stroke="none" stroke-width="1" fill="none" fill-rule="evenodd">
        <g id="love2work" transform="translate(-30.000000, -10.000000)">
            <g id="Icons" transform="translate(30.000000, 10.000000)">
                <g id="Bgpath" transform="translate(0.000000, 72.000000)">
                    <mask id="mask-2" fill="white">
                        <use xlink:href="#path-1"></use>
                    </mask>
                    <use id="Rectangle" fill="#FAFAFA" xlink:href="#path-1"></use>
                    <ellipse id="Oval" fill="#EEF4FA" mask="url(#mask-2)" cx="163.166667" cy="259.951613" rx="234.666667" ry="217.846774"></ellipse>
                    <path d="M335.5,188.556452 C388.666667,188.556452 471.166667,130.891129 550.916667,130.891129 C604.083333,130.891129 649.916667,141.569892 688.416667,162.927419 L688.416667,227 L261.734568,227 C298.760699,201.370968 323.349176,188.556452 335.5,188.556452 Z" id="Path-2-Copy" fill="#E49C13" mask="url(#mask-2)"></path>
                    <path d="M-19.25,277.342742 C-23.5277778,288.326613 -25.6666667,276.427419 -25.6666667,241.645161 C-25.6666667,189.471774 66.4684232,142.790323 146.329546,142.790323 C226.190669,142.790323 311.666667,221.050403 311.666667,257.205645 C311.666667,262.821148 323.330167,265.262008 346.657169,264.528226 C362.477045,256.285759 374.226859,248.658071 381.906611,241.645161 C419.996236,206.862903 499.583333,148.282258 579.333333,148.282258 C632.5,148.282258 687.194444,160.486559 743.416667,184.895161 L743.416667,277.342742 L372.781472,277.342742 L311.666667,277.342742 L-19.25,277.342742 Z" id="Path-2" fill="#E4C113" mask="url(#mask-2)"></path>
                </g>
                <g id="Tabs" filter="url(#filter-3)" transform="translate(57.000000, 28.000000)">
                    <rect id="Rectangle" fill="#E6E6E6" x="0" y="0" width="242.158273" height="187"></rect>
                    <g id="Card" transform="translate(11.007194, 9.166667)">
                        <path d="M243.992806,1.21027545 L243.992806,42.3606779 C243.992806,43.0314629 241.842054,43.5574713 239.176207,43.5574713 L4.81742025,43.5574713 C2.17046799,43.5574713 0,43.0383077 0,42.3743674 L0,1.21027545 C0,0.539490394 2.15157292,0 4.81742025,0 L239.176207,0 C241.842054,0 243.992806,0.539490394 243.992806,1.21027545" id="Background" fill="#FFFFFF"></path>
                        <g id="Card-Content" transform="translate(9.036771, 8.218391)">
                            <path d="M27.1103118,25.3124793 C27.1103118,26.3110138 26.30111,27.1205253 25.3029576,27.1205253 L1.80735412,27.1205253 C0.80920173,27.1205253 0,26.3110138 0,25.3124793 L0,1.80788161 C0,0.810168966 0.80920173,-0.000164367816 1.80735412,-0.000164367816 L25.3029576,-0.000164367816 C26.30111,-0.000164367816 27.1103118,0.810168966 27.1103118,1.80788161 L27.1103118,25.3124793 Z" id="Fill-16" fill="#4BA4EB"></path>
                            <g id="Text" transform="translate(33.682509, 9.040230)" fill="#C2C2C2">
                                <polygon id="Fill-22" points="0 4.93103448 127.336313 4.93103448 127.336313 0 0 0"></polygon>
                                <polygon id="Fill-25" points="0 11.5057471 53.3990989 11.5057471 53.3990989 9.04022989 0 9.04022989"></polygon>
                            </g>
                        </g>
                    </g>
                    <g id="Card-Copy" transform="translate(11.007194, 61.764368)">
                        <path d="M243.992806,1.21027545 L243.992806,42.3606779 C243.992806,43.0314629 241.842054,43.5574713 239.176207,43.5574713 L4.81742025,43.5574713 C2.17046799,43.5574713 0,43.0383077 0,42.3743674 L0,1.21027545 C0,0.539490394 2.15157292,0 4.81742025,0 L239.176207,0 C241.842054,0 243.992806,0.539490394 243.992806,1.21027545" id="Background" fill="#FFFFFF"></path>
                        <g id="Card-Content" transform="translate(9.036771, 8.218391)">
                            <path d="M27.1103118,25.3124793 C27.1103118,26.3110138 26.30111,27.1205253 25.3029576,27.1205253 L1.80735412,27.1205253 C0.80920173,27.1205253 0,26.3110138 0,25.3124793 L0,1.80788161 C0,0.810168966 0.80920173,-0.000164367816 1.80735412,-0.000164367816 L25.3029576,-0.000164367816 C26.30111,-0.000164367816 27.1103118,0.810168966 27.1103118,1.80788161 L27.1103118,25.3124793 Z" id="Fill-16" fill="#90C4F2"></path>
                            <g id="Text" transform="translate(33.682509, 9.040230)" fill="#C2C2C2">
                                <polygon id="Fill-22" points="0 4.93103448 127.336313 4.93103448 127.336313 0 0 0"></polygon>
                                <polygon id="Fill-25" points="0 11.5057471 53.3990989 11.5057471 53.3990989 9.04022989 0 9.04022989"></polygon>
                            </g>
                        </g>
                    </g>
                    <g id="Card-3" transform="translate(11.007194, 114.362069)">
                        <g id="Background">
                            <use fill="black" fill-opacity="1" filter="url(#filter-5)" xlink:href="#path-4"></use>
                            <use fill="#FFFFFF" fill-rule="evenodd" xlink:href="#path-4"></use>
                        </g>
                        <g id="Pie-Chart" transform="translate(50.934525, 8.218391)" fill="#C2C2C2">
                            <g id="Graph">
                                <path d="M124.500352,38.4957195 C114.645646,38.4957195 106.626655,30.4363172 106.626655,20.5306161 C106.626655,15.2373747 108.93453,10.2388 112.956811,6.81516782 C113.507466,6.34657011 114.333449,6.41411034 114.800257,6.96937471 C115.26766,7.52344368 115.198679,8.35245517 114.647429,8.82224828 C111.212673,11.7444092 109.243753,16.0125931 109.243753,20.5306161 C109.243753,28.986892 116.088291,35.8658345 124.500352,35.8658345 C132.913008,35.8658345 139.75814,28.986892 139.75814,20.5306161 C139.75814,12.0749379 132.913008,5.1948 124.500352,5.1948 C123.77784,5.1948 123.192695,4.60666207 123.192695,3.88045517 C123.192695,3.15424828 123.77784,2.56551264 124.500352,2.56551264 C134.356248,2.56551264 142.374644,10.6243172 142.374644,20.5306161 C142.374644,30.4363172 134.356248,38.4957195 124.500352,38.4957195" id="Graph3"></path>
                                <path d="M73.4786375,38.4957195 C63.6239309,38.4957195 55.6055345,30.4363172 55.6055345,20.5306161 C55.6055345,19.8050069 56.1912747,19.2156736 56.9137867,19.2156736 C57.635704,19.2156736 58.2220388,19.8050069 58.2220388,20.5306161 C58.2220388,28.986892 65.0659815,35.8658345 73.4786375,35.8658345 C81.8912934,35.8658345 88.7364254,28.986892 88.7364254,20.5306161 C88.7364254,12.0749379 81.8912934,5.1948 73.4786375,5.1948 C72.7561255,5.1948 72.17098,4.60666207 72.17098,3.88045517 C72.17098,3.15424828 72.7561255,2.56551264 73.4786375,2.56551264 C83.3345334,2.56551264 91.3529297,10.6243172 91.3529297,20.5306161 C91.3529297,30.4363172 83.3345334,38.4957195 73.4786375,38.4957195" id="Graph-2"></path>
                                <path d="M18.8597733,40.7557088 C15.4672006,40.8312629 12.1916085,39.9325572 9.3863743,38.1578289 C8.79148869,37.7812232 8.63239674,36.9734645 9.03165141,36.3541592 C9.43086668,35.7366431 10.2376889,35.5392466 10.8331775,35.9152427 C13.2255141,37.4297261 16.0211229,38.1960555 18.9175813,38.13155 C27.2630389,37.9456929 34.2047008,30.9305021 34.3905799,22.4926389 C34.5764458,14.0553722 27.9372247,7.34144159 19.5917672,7.52729872 C18.8750265,7.54326086 18.3068931,6.96934405 18.322856,6.24471839 C18.3388188,5.52009274 18.9328214,4.91969852 19.6495621,4.90373638 C29.4267313,4.68599438 37.2039364,12.5501048 36.9861841,22.4348336 C36.768445,32.3189661 28.6369425,40.5379668 18.8597733,40.7557088" id="Graph-1" transform="translate(22.901110, 22.829715) rotate(142.000000) translate(-22.901110, -22.829715) "></path>
                            </g>
                            <g id="80%" transform="translate(116.656493, 16.436782)">
                                <path d="M0.891119468,1.78611034 C0.891119468,2.53263908 1.49787406,2.85898391 2.15568055,2.85898391 C2.80527178,2.85898391 3.30170736,2.52427126 3.30170736,1.66537471 C3.30170736,1.05571954 2.91441719,0.695305747 2.09758702,0.695305747 C1.43097849,0.695305747 0.891119468,1.07305287 0.891119468,1.78611034 M0.679870286,4.61921379 C0.679870286,5.36634023 1.2537639,5.94192644 2.15568055,5.94192644 C2.93964973,5.94192644 3.54640433,5.39204138 3.54640433,4.58574253 C3.54640433,3.73581149 2.91441719,3.3228 2.12281956,3.3228 C1.29542693,3.3228 0.679870286,3.72624828 0.679870286,4.61921379 M0.351847249,1.7084092 C0.351847249,0.875811494 1.1105839,0.196822989 2.04594833,0.231489655 C2.95725383,0.231489655 3.84156638,0.669604598 3.84156638,1.7084092 C3.84156638,2.3359954 3.59686941,2.78188046 3.03236465,3.0651908 C3.68195589,3.30606437 4.08626335,3.86431724 4.08626335,4.56781149 C4.08626335,5.75365057 3.26004433,6.40574253 1.99548325,6.40574253 C1.13581644,6.40574253 0.140598067,5.80505287 0.140598067,4.61921379 C0.140598067,3.89838621 0.503242497,3.29709885 1.17806627,3.03112184 C0.604172662,2.66174253 0.351847249,2.42983448 0.351847249,1.7084092" id="Fill-29"></path>
                                <path d="M6.78432618,0.695186207 C5.60426477,0.695186207 5.32670682,2.02626667 5.32670682,3.36571494 C5.32670682,4.91973793 5.6635319,5.9418069 6.80134347,5.9418069 C8.08292184,5.9418069 8.26776488,4.52465747 8.26776488,3.30594483 C8.26776488,2.00056552 8.04067201,0.695186207 6.78432618,0.695186207 M8.8076239,3.36571494 C8.8076239,4.97173793 8.43676422,6.40562299 6.80134347,6.40562299 C5.15770747,6.40562299 4.78684779,4.98010575 4.78684779,3.30594483 C4.78684779,1.77702529 5.08963829,0.231967816 6.80134347,0.231967816 C8.56351373,0.231967816 8.8076239,1.95753103 8.8076239,3.36571494" id="Fill-30"></path>
                                <path d="M13.7743856,4.87676322 C13.7743856,5.36628046 14.2039256,5.79602759 14.6845175,5.79602759 C15.1739114,5.79602759 15.5864341,5.35851034 15.5864341,4.86062529 C15.5864341,4.36214253 15.1739114,3.9323954 14.6845175,3.9323954 C14.178693,3.9323954 13.7743856,4.36214253 13.7743856,4.87676322 Z M16.067026,4.86062529 C16.067026,5.64122299 15.4690735,6.28554483 14.6927327,6.28554483 C13.9263676,6.28554483 13.2937937,5.64122299 13.2937937,4.86062529 C13.2937937,4.0872 13.9339961,3.44347586 14.6927327,3.44347586 C15.4602714,3.44347586 16.067026,4.0872 16.067026,4.86062529 Z M11.4306933,6.40568276 L10.9923512,6.40568276 L14.3388903,0.232027586 L14.7772324,0.232027586 L11.4306933,6.40568276 Z M12.0204306,1.71671724 C12.0204306,1.21942989 11.5991058,0.780717241 11.1014966,0.780717241 C10.6044742,0.780717241 10.1907779,1.20986667 10.1907779,1.71671724 C10.1907779,2.22416552 10.6121027,2.64434943 11.1014966,2.64434943 C11.5903038,2.64434943 12.0204306,2.2152 12.0204306,1.71671724 Z M11.1014966,3.13386667 C10.3345447,3.13386667 9.71018603,2.49014253 9.71018603,1.71671724 C9.71018603,0.944487356 10.3345447,0.2912 11.1014966,0.2912 C11.8690353,0.2912 12.5010225,0.934924138 12.5010225,1.71671724 C12.5010225,2.49851034 11.8690353,3.13386667 11.1014966,3.13386667 Z" id="Fill-31"></path>
                            </g>
                            <g id="60%" transform="translate(17.252017, 17.258621)">
                                <path d="M1.02690575,4.35204138 C1.02690575,5.03043218 1.39835223,5.83732874 2.3759665,5.83732874 C3.37940012,5.83732874 3.7332425,5.04716782 3.7332425,4.31737471 C3.7332425,3.38197241 3.29490044,2.84822529 2.36775125,2.84822529 C1.53273018,2.84822529 1.02690575,3.53617931 1.02690575,4.35204138 Z M3.62409709,1.61217931 C3.50614963,0.994754023 3.1264879,0.590708046 2.49450076,0.590708046 C1.0362946,0.590708046 0.908958288,2.18776552 0.824458615,3.33057011 C1.1618705,2.86615632 1.51629969,2.3850069 2.38476855,2.3850069 C3.58184725,2.3850069 4.27310152,3.12316782 4.27310152,4.33470805 C4.27310152,5.55461609 3.573632,6.30114483 2.36775125,6.30114483 C1.1788878,6.30114483 0.284599593,5.54505287 0.284599593,3.40767356 C0.284599593,1.9731908 0.698295909,0.127489655 2.44344888,0.127489655 C3.37940012,0.127489655 4.07065439,0.642110345 4.1803866,1.61217931 L3.62409709,1.61217931 Z" id="Fill-33"></path>
                                <path d="M6.95397101,0.590708046 C5.7739096,0.590708046 5.49635165,1.92178851 5.49635165,3.26123678 C5.49635165,4.81525977 5.83376353,5.83732874 6.9709883,5.83732874 C8.25256667,5.83732874 8.43799651,4.42017931 8.43799651,3.20086897 C8.43799651,1.89608736 8.21090364,0.590708046 6.95397101,0.590708046 M8.97726873,3.26123678 C8.97726873,4.86725977 8.60699586,6.30114483 6.9709883,6.30114483 C5.3273523,6.30114483 4.95649262,4.87562759 4.95649262,3.20086897 C4.95649262,1.67254713 5.25928312,0.127489655 6.9709883,0.127489655 C8.73374537,0.127489655 8.97726873,1.85245517 8.97726873,3.26123678" id="Fill-34"></path>
                                <path d="M13.9440304,4.77228506 C13.9440304,5.2618023 14.3735704,5.69154943 14.8547491,5.69154943 C15.3435562,5.69154943 15.7566658,5.25403218 15.7566658,4.75614713 C15.7566658,4.25766437 15.3435562,3.82791724 14.8547491,3.82791724 C14.3483379,3.82791724 13.9440304,4.25766437 13.9440304,4.77228506 Z M16.2372576,4.75614713 C16.2372576,5.53674483 15.6387183,6.18046897 14.8629644,6.18046897 C14.0960125,6.18046897 13.4634385,5.53674483 13.4634385,4.75614713 C13.4634385,3.98272184 14.1042277,3.3389977 14.8629644,3.3389977 C15.6305031,3.3389977 16.2372576,3.98272184 16.2372576,4.75614713 Z M11.6003381,6.3012046 L11.161996,6.3012046 L14.509122,0.127549425 L14.9468772,0.127549425 L11.6003381,6.3012046 Z M12.1906622,1.61223908 C12.1906622,1.11435402 11.7687506,0.67623908 11.2711415,0.67623908 C10.7741191,0.67623908 10.3610096,1.10538851 10.3610096,1.61223908 C10.3610096,2.11968736 10.7823343,2.53987126 11.2711415,2.53987126 C11.7605354,2.53987126 12.1906622,2.11072184 12.1906622,1.61223908 Z M11.2711415,3.02938851 C10.5041896,3.02938851 9.88041767,2.38506667 9.88041767,1.61223908 C9.88041767,0.840009195 10.5041896,0.186721839 11.2711415,0.186721839 C12.0386801,0.186721839 12.6706673,0.830445977 12.6706673,1.61223908 C12.6706673,2.39403218 12.0386801,3.02938851 11.2711415,3.02938851 Z" id="Fill-35"></path>
                            </g>
                            <g id="75%" transform="translate(64.900443, 16.436782)">
                                <path d="M0.384532192,0.29125977 L4.17000018,0.29125977 L4.17000018,0.806478161 C2.46768385,2.76454713 1.82630786,5.10036322 1.75882549,6.2856046 L1.16908818,6.2856046 C1.28644884,4.53434023 2.38259738,2.26666207 3.52158255,0.841144828 L0.384532192,0.841144828 L0.384532192,0.29125977 Z" id="Fill-37"></path>
                                <path d="M5.40956344,4.71388966 C5.51929565,5.52975172 6.10140451,5.94216552 6.87657165,5.94216552 C7.76264461,5.94216552 8.30191683,5.2548092 8.30191683,4.39651034 C8.30191683,3.49457931 7.72802322,2.85862529 6.82610657,2.85862529 C6.2956364,2.85862529 5.86433599,3.04809655 5.53689975,3.48621149 L5.08975565,3.42584368 L5.56976074,0.291498851 L8.52079446,0.291498851 L8.52079446,0.754717241 L6.02570689,0.754717241 L5.65426041,2.78988966 C6.11842181,2.48147586 6.42179911,2.3954069 6.96165813,2.3954069 C8.04900461,2.3954069 8.84177585,3.15090115 8.84177585,4.39651034 C8.84177585,5.66722299 7.9398592,6.40538391 6.96165813,6.40538391 C5.83910344,6.40538391 4.96241934,5.96786667 4.87029122,4.71388966 L5.40956344,4.71388966 Z" id="Fill-38"></path>
                                <path d="M13.8918636,4.87676322 C13.8918636,5.36628046 14.3214036,5.79602759 14.8019955,5.79602759 C15.2913894,5.79602759 15.7039121,5.35851034 15.7039121,4.86062529 C15.7039121,4.36214253 15.2913894,3.9323954 14.8019955,3.9323954 C14.2961711,3.9323954 13.8918636,4.36214253 13.8918636,4.87676322 Z M16.1850908,4.86062529 C16.1850908,5.64122299 15.5865515,6.28554483 14.8107975,6.28554483 C14.0438457,6.28554483 13.4112717,5.64122299 13.4112717,4.86062529 C13.4112717,4.0872 14.0514741,3.44347586 14.8107975,3.44347586 C15.5777494,3.44347586 16.1850908,4.0872 16.1850908,4.86062529 Z M11.5481713,6.40568276 L11.1092424,6.40568276 L14.4569552,0.232027586 L14.8947104,0.232027586 L11.5481713,6.40568276 Z M12.1384954,1.71671724 C12.1384954,1.21942989 11.7165838,0.780717241 11.2189746,0.780717241 C10.7219523,0.780717241 10.3082559,1.20986667 10.3082559,1.71671724 C10.3082559,2.22416552 10.7295807,2.64434943 11.2189746,2.64434943 C11.7083686,2.64434943 12.1384954,2.2152 12.1384954,1.71671724 Z M11.2189746,3.13386667 C10.4520227,3.13386667 9.82766405,2.49014253 9.82766405,1.71671724 C9.82766405,0.944487356 10.4520227,0.2912 11.2189746,0.2912 C11.9865133,0.2912 12.6185005,0.934924138 12.6185005,1.71671724 C12.6185005,2.49851034 11.9865133,3.13386667 11.2189746,3.13386667 Z" id="Fill-39"></path>
                            </g>
                        </g>
                    </g>
                </g>
                <g id="Browser" transform="translate(260.000000, 0.000000)">
                    <path d="M334,6.54482474 L334,229.074474 C334,232.701889 331.055852,235.546392 327.406593,235.546392 L6.59453199,235.546392 C2.97113805,235.546392 0,232.738903 0,229.148503 L0,6.54482474 C0,2.91741031 2.94527273,0 6.59453199,0 L327.406593,0 C331.055852,0 334,2.91741031 334,6.54482474" id="Background" fill="#EBEBEB"></path>
                    <polygon id="Divider" fill="#A5A5A1" points="38.2356902 97.5835052 308.13468 97.5835052 308.13468 96.4618557 38.2356902 96.4618557"></polygon>
                    <g id="Left-Bar" transform="translate(0.000000, 15.703093)">
                        <path d="M24.7407407,0 L24.7407407,219.843299 L6.59453199,219.843299 C2.97113805,219.843299 0,217.03581 0,213.44541 L0,0 L24.7407407,0 Z" id="Fill-3" fill="#E1E1E1"></path>
                        <g id="Content" transform="translate(4.498316, 41.501031)" fill="#BFBFBF">
                            <path d="M14.6195286,12.1135901 C14.6195286,13.4763942 13.5118182,14.581219 12.1454545,14.581219 L2.47407407,14.581219 C1.10771044,14.581219 0,13.4763942 0,12.1135901 L0,2.46740454 C0,1.10572206 1.10771044,-0.000224329897 2.47407407,-0.000224329897 L12.1454545,-0.000224329897 C13.5118182,-0.000224329897 14.6195286,1.10572206 14.6195286,2.46740454 L14.6195286,12.1135901 Z" id="Fill-14"></path>
                            <path d="M14.6195286,31.182753 C14.6195286,32.5455571 13.5118182,33.6492602 12.1454545,33.6492602 L2.47407407,33.6492602 C1.10771044,33.6492602 0,32.5455571 0,31.182753 L0,21.5343241 C0,20.1726416 1.10771044,19.0678169 2.47407407,19.0678169 L12.1454545,19.0678169 C13.5118182,19.0678169 14.6195286,20.1726416 14.6195286,21.5343241 L14.6195286,31.182753 Z" id="Fill-18"></path>
                            <path d="M14.6195286,51.3713221 C14.6195286,52.7341262 13.5118182,53.8389509 12.1454545,53.8389509 L2.47407407,53.8389509 C1.10771044,53.8389509 0,52.7341262 0,51.3713221 L0,41.7251365 C0,40.363454 1.10771044,39.2575076 2.47407407,39.2575076 L12.1454545,39.2575076 C13.5118182,39.2575076 14.6195286,40.363454 14.6195286,41.7251365 L14.6195286,51.3713221 Z" id="Fill-20"></path>
                        </g>
                    </g>
                    <g id="Top-bar">
                        <mask id="mask-7" fill="white">
                            <use xlink:href="#path-6"></use>
                        </mask>
                        <g id="Bar"></g>
                        <path d="M334,6.84486598 L334,26.9190268 L0,26.9190268 L0,6.84486598 C0,3.23091134 2.79795286,-0.000560824742 6.43821549,-0.000560824742 L327.778828,-0.000560824742 C331.414593,-0.000560824742 334,3.23091134 334,6.84486598" id="Fill" fill="#BDBDBD" mask="url(#mask-7)"></path>
                        <g id="Buttons" mask="url(#mask-7)">
                            <g transform="translate(10.121212, 10.094845)">
                                <path d="M7.81931111,3.53476619 C7.81931111,5.44044866 6.27189024,6.98383835 4.36235488,6.98383835 C2.45169495,6.98383835 0.903149495,5.44044866 0.903149495,3.53476619 C0.903149495,1.63020536 2.45169495,0.0868156701 4.36235488,0.0868156701 C6.27189024,0.0868156701 7.81931111,1.63020536 7.81931111,3.53476619" id="red" fill="#F7001E"></path>
                                <path d="M18.6894929,3.53476619 C18.6894929,5.44044866 17.1409475,6.98383835 15.2302875,6.98383835 C13.3207522,6.98383835 11.7722067,5.44044866 11.7722067,3.53476619 C11.7722067,1.63020536 13.3207522,0.0868156701 15.2302875,0.0868156701 C17.1409475,0.0868156701 18.6894929,1.63020536 18.6894929,3.53476619" id="yellow" fill="#F5A623"></path>
                                <path d="M29.557538,3.53476619 C29.557538,5.44044866 28.0101172,6.98383835 26.0994572,6.98383835 C24.1910465,6.98383835 22.642501,5.44044866 22.642501,3.53476619 C22.642501,1.63020536 24.1910465,0.0868156701 26.0994572,0.0868156701 C28.0101172,0.0868156701 29.557538,1.63020536 29.557538,3.53476619" id="green" fill="#67B90A"></path>
                            </g>
                        </g>
                    </g>
                    <g id="Top-Content" transform="translate(38.235690, 40.379381)" fill="#C2C2C2">
                        <path d="M37.1111111,34.5465798 C37.1111111,35.9093839 36.0034007,37.0142087 34.637037,37.0142087 L2.47407407,37.0142087 C1.10771044,37.0142087 0,35.9093839 0,34.5465798 L0,2.46740454 C0,1.10572206 1.10771044,-0.000224329897 2.47407407,-0.000224329897 L34.637037,-0.000224329897 C36.0034007,-0.000224329897 37.1111111,1.10572206 37.1111111,2.46740454 L37.1111111,34.5465798 Z" id="Fill-16"></path>
                        <g id="Text" transform="translate(46.107744, 12.338144)">
                            <polygon id="Fill-22" points="0 6.72989691 174.309764 6.72989691 174.309764 0 0 0"></polygon>
                            <polygon id="Fill-25" points="0 15.7030928 73.0976431 15.7030928 73.0976431 12.3381443 0 12.3381443"></polygon>
                        </g>
                    </g>
                    <g id="Pie-Chart" transform="translate(58.478114, 126.746392)">
                        <g id="Graph">
                            <path d="M211.401083,67.7546953 C192.764558,67.7546953 177.599608,52.6303736 177.599608,34.0412767 C177.599608,24.1079489 181.9641,14.7275942 189.570753,8.30278598 C190.612113,7.42341278 192.174154,7.55015918 193.056948,8.59217155 C193.940867,9.63194062 193.810416,11.1876685 192.767931,12.0692849 C186.272362,17.5530293 182.548881,25.5627282 182.548881,34.0412767 C182.548881,49.9103736 195.492787,62.8194375 211.401083,62.8194375 C227.310504,62.8194375 240.255534,49.9103736 240.255534,34.0412767 C240.255534,18.1733014 227.310504,5.26199423 211.401083,5.26199423 C210.034719,5.26199423 208.928133,4.15829113 208.928133,2.79548701 C208.928133,1.43268289 210.034719,0.327858144 211.401083,0.327858144 C230.039857,0.327858144 245.203682,15.4510581 245.203682,34.0412767 C245.203682,52.6303736 230.039857,67.7546953 211.401083,67.7546953" id="Graph3" fill="#158B25"></path>
                            <path d="M114.912419,67.7546953 C96.2758936,67.7546953 81.1120687,52.6303736 81.1120687,34.0412767 C81.1120687,32.6795942 82.2197791,31.5736478 83.5861428,31.5736478 C84.9513818,31.5736478 86.0602168,32.6795942 86.0602168,34.0412767 C86.0602168,49.9103736 99.002998,62.8194375 114.912419,62.8194375 C130.82184,62.8194375 143.76687,49.9103736 143.76687,34.0412767 C143.76687,18.1733014 130.82184,5.26199423 114.912419,5.26199423 C113.546055,5.26199423 112.439469,4.15829113 112.439469,2.79548701 C112.439469,1.43268289 113.546055,0.327858144 114.912419,0.327858144 C133.551193,0.327858144 148.715018,15.4510581 148.715018,34.0412767 C148.715018,52.6303736 133.551193,67.7546953 114.912419,67.7546953" id="Graph-2" fill="#CC6633"></path>
                            <path d="M20.2797603,67.7546953 C13.8123057,67.7546953 7.527033,65.9264066 2.1020633,62.4694829 C0.951618855,61.7359241 0.614245118,60.2093592 1.34971987,59.0607901 C2.08519461,57.915586 3.6157468,57.5779695 4.76731582,58.3104066 C9.39383434,61.2603447 14.7580768,62.8194375 20.2797603,62.8194375 C36.1891811,62.8194375 49.1342114,49.9103736 49.1342114,34.0412767 C49.1342114,18.1733014 36.1891811,5.26199423 20.2797603,5.26199423 C18.9133966,5.26199423 17.8056862,4.15829113 17.8056862,2.79548701 C17.8056862,1.43268289 18.9133966,0.327858144 20.2797603,0.327858144 C38.9185347,0.327858144 54.0823596,15.4510581 54.0823596,34.0412767 C54.0823596,52.6303736 38.9185347,67.7546953 20.2797603,67.7546953" id="Graph-1" fill="#CD870B"></path>
                        </g>
                        <g id="80%" transform="translate(195.676768, 26.919588)" fill="#111313">
                            <path d="M1.70778586,3.35182515 C1.70778586,4.75276536 2.87060067,5.36518598 4.13125387,5.36518598 C5.37616296,5.36518598 6.3275569,4.73706227 6.3275569,3.12525196 C6.3275569,1.98116948 5.58533468,1.30481485 4.01992054,1.30481485 C2.74239865,1.30481485 1.70778586,2.01369732 1.70778586,3.35182515 M1.30293737,8.66844371 C1.30293737,10.0705056 2.40277576,11.150654 4.13125387,11.150654 C5.63369158,11.150654 6.7965064,10.1187365 6.7965064,8.60563134 C6.7965064,7.01064577 5.58533468,6.23558598 4.06827744,6.23558598 C2.48262088,6.23558598 1.30293737,6.99269938 1.30293737,8.66844371 M0.674297643,3.20601072 C0.674297643,1.64355299 2.12837845,0.369359175 3.92095758,0.434414845 C5.66742896,0.434414845 7.3621697,1.25658392 7.3621697,3.20601072 C7.3621697,4.38374268 6.8932202,5.2204932 5.81137508,5.75215505 C7.05628418,6.20417979 7.83111919,7.25180041 7.83111919,8.57198186 C7.83111919,10.7973344 6.24771178,12.021054 3.82424377,12.021054 C2.17673535,12.021054 0.269449158,10.8937963 0.269449158,8.66844371 C0.269449158,7.31573443 0.964439057,6.18735505 2.25770505,5.68822103 C1.15786667,4.99504165 0.674297643,4.55984165 0.674297643,3.20601072" id="Fill-29"></path>
                            <path d="M13.0018215,1.30459052 C10.7402929,1.30459052 10.208367,3.80250392 10.208367,6.31612041 C10.208367,9.23240907 10.8538754,11.1504297 13.0344343,11.1504297 C15.4905152,11.1504297 15.8447576,8.49099876 15.8447576,6.20395546 C15.8447576,3.75427299 15.4095455,1.30459052 13.0018215,1.30459052 M16.8793704,6.31612041 C16.8793704,9.32999258 16.1686364,12.0208297 13.0344343,12.0208297 C9.88448822,12.0208297 9.17375421,9.34569567 9.17375421,6.20395546 C9.17375421,3.33477608 9.75403704,0.435312165 13.0344343,0.435312165 C16.4115455,0.435312165 16.8793704,3.67351423 16.8793704,6.31612041" id="Fill-30"></path>
                            <path d="M26.3979205,9.15176247 C26.3979205,10.0703934 27.2211125,10.8768594 28.1421428,10.8768594 C29.0800418,10.8768594 29.8706209,10.055812 29.8706209,9.12147794 C29.8706209,8.18602227 29.0800418,7.37955629 28.1421428,7.37955629 C27.1727556,7.37955629 26.3979205,8.18602227 26.3979205,9.15176247 Z M30.7916512,9.12147794 C30.7916512,10.5863522 29.6457051,11.7954903 28.1578869,11.7954903 C26.6891865,11.7954903 25.4768902,10.5863522 25.4768902,9.12147794 C25.4768902,7.67006351 26.7038061,6.46204701 28.1578869,6.46204701 C29.6288364,6.46204701 30.7916512,7.67006351 30.7916512,9.12147794 Z M21.9063515,12.0209419 L21.0662909,12.0209419 L27.4797657,0.43542433 L28.3198263,0.43542433 L21.9063515,12.0209419 Z M23.0365535,3.22160165 C23.0365535,2.28838928 22.2291057,1.46509856 21.2754626,1.46509856 C20.3229441,1.46509856 19.5301158,2.27044289 19.5301158,3.22160165 C19.5301158,4.17388206 20.3375636,4.96240165 21.2754626,4.96240165 C22.212237,4.96240165 23.0365535,4.15705732 23.0365535,3.22160165 Z M21.2754626,5.88103258 C19.8056377,5.88103258 18.6090855,4.67301608 18.6090855,3.22160165 C18.6090855,1.77243052 19.8056377,0.546467629 21.2754626,0.546467629 C22.7464121,0.546467629 23.9575838,1.75448412 23.9575838,3.22160165 C23.9575838,4.68871918 22.7464121,5.88103258 21.2754626,5.88103258 Z" id="Fill-31"></path>
                        </g>
                        <g id="60%" transform="translate(8.996633, 28.041237)" fill="#111313">
                            <path d="M1.96801347,8.16706639 C1.96801347,9.44013856 2.67987205,10.9543654 4.55342088,10.9543654 C6.47645118,10.9543654 7.15457239,9.47154474 7.15457239,8.10201072 C7.15457239,6.34662928 6.31451178,5.34499629 4.53767677,5.34499629 C2.93740067,5.34499629 1.96801347,6.63601485 1.96801347,8.16706639 Z M6.94540067,3.02542515 C6.71936027,1.86676124 5.99175758,1.10852619 4.78058586,1.10852619 C1.98600673,1.10852619 1.74197306,4.10557361 1.58003367,6.25016742 C2.22666667,5.37864577 2.90591246,4.47571794 4.57028956,4.47571794 C6.86443098,4.47571794 8.18918519,5.86095505 8.18918519,8.13453856 C8.18918519,10.4238252 6.84868687,11.8247654 4.53767677,11.8247654 C2.25927946,11.8247654 0.545420875,10.4058788 0.545420875,6.39486021 C0.545420875,3.70290144 1.33824916,0.239247835 4.68274747,0.239247835 C6.47645118,0.239247835 7.80120539,1.20498804 8.01150168,3.02542515 L6.94540067,3.02542515 Z" id="Fill-33"></path>
                            <path d="M13.3269374,1.10852619 C11.0654088,1.10852619 10.5334828,3.60643959 10.5334828,6.12005608 C10.5334828,9.03634474 11.1801158,10.9543654 13.3595502,10.9543654 C15.815631,10.9543654 16.170998,8.29493443 16.170998,6.00676948 C16.170998,3.55820866 15.7357859,1.10852619 13.3269374,1.10852619 M17.2044862,6.12005608 C17.2044862,9.13392825 16.4948768,11.8247654 13.3595502,11.8247654 C10.209604,11.8247654 9.49887003,9.14963134 9.49887003,6.00676948 C9.49887003,3.13871175 10.0791529,0.239247835 13.3595502,0.239247835 C16.7377859,0.239247835 17.2044862,3.47632825 17.2044862,6.12005608" id="Fill-34"></path>
                            <path d="M26.7230364,8.95569814 C26.7230364,9.87432907 27.5462283,10.6807951 28.4683832,10.6807951 C29.4051576,10.6807951 30.1968613,9.85974763 30.1968613,8.92541361 C30.1968613,7.98995794 29.4051576,7.18349196 28.4683832,7.18349196 C27.4978714,7.18349196 26.7230364,7.98995794 26.7230364,8.95569814 Z M31.1178916,8.92541361 C31.1178916,10.3902878 29.9708209,11.5983043 28.4841273,11.5983043 C27.0143024,11.5983043 25.8020061,10.3902878 25.8020061,8.92541361 C25.8020061,7.47399918 27.0300465,6.26598268 28.4841273,6.26598268 C29.9550768,6.26598268 31.1178916,7.47399918 31.1178916,8.92541361 Z M22.2314673,11.8248775 L21.3914067,11.8248775 L27.8060061,0.23936 L28.6449421,0.23936 L22.2314673,11.8248775 Z M23.3627939,3.02553732 C23.3627939,2.0912033 22.5542215,1.26903423 21.6005785,1.26903423 C20.6480599,1.26903423 19.8563562,2.07437856 19.8563562,3.02553732 C19.8563562,3.97781773 20.663804,4.76633732 21.6005785,4.76633732 C22.5384774,4.76633732 23.3627939,3.96099299 23.3627939,3.02553732 Z M21.6005785,5.68496825 C20.1307535,5.68496825 18.9353259,4.4758301 18.9353259,3.02553732 C18.9353259,1.57636619 20.1307535,0.350403299 21.6005785,0.350403299 C23.0715279,0.350403299 24.2826997,1.55841979 24.2826997,3.02553732 C24.2826997,4.49265485 23.0715279,5.68496825 21.6005785,5.68496825 Z" id="Fill-35"></path>
                        </g>
                        <g id="75%" transform="translate(98.962963, 26.919588)" fill="#111313">
                            <path d="M0.7369367,0.546579794 L7.99159663,0.546579794 L7.99159663,1.51344165 C4.72919259,5.18796536 3.50002761,9.57137155 3.37070101,11.7956025 L2.24049899,11.7956025 C2.46541481,8.50916948 4.56612862,4.25363134 6.7489367,1.57849732 L0.7369367,1.57849732 L0.7369367,0.546579794 Z" id="Fill-37"></path>
                            <path d="M10.3671576,8.84611299 C10.5774539,10.3771645 11.6930364,11.1511027 13.1786054,11.1511027 C14.8767199,11.1511027 15.9102081,9.86120577 15.9102081,8.25051711 C15.9102081,6.55794804 14.8103697,5.36451299 13.0818916,5.36451299 C12.0652721,5.36451299 11.2387064,5.72007588 10.6111912,6.54224495 L9.75426195,6.42895835 L10.6741677,0.547028454 L16.3296761,0.547028454 L16.3296761,1.4163068 L11.5479657,1.4163068 L10.8361071,5.2355233 C11.7256492,4.65675216 12.3070566,4.49523464 13.3416694,4.49523464 C15.4255145,4.49523464 16.9448209,5.91299959 16.9448209,8.25051711 C16.9448209,10.6351439 15.2163428,12.020381 13.3416694,12.020381 C11.1903495,12.020381 9.51022828,11.1993336 9.33366936,8.84611299 L10.3671576,8.84611299 Z" id="Fill-38"></path>
                            <path d="M26.6230613,9.15176247 C26.6230613,10.0703934 27.4462532,10.8768594 28.3672835,10.8768594 C29.3051825,10.8768594 30.0957616,10.055812 30.0957616,9.12147794 C30.0957616,8.18602227 29.3051825,7.37955629 28.3672835,7.37955629 C27.3978963,7.37955629 26.6230613,8.18602227 26.6230613,9.15176247 Z M31.0179165,9.12147794 C31.0179165,10.5863522 29.8708458,11.7954903 28.3841522,11.7954903 C26.9143273,11.7954903 25.702031,10.5863522 25.702031,9.12147794 C25.702031,7.67006351 26.9289468,6.46204701 28.3841522,6.46204701 C29.8539771,6.46204701 31.0179165,7.67006351 31.0179165,9.12147794 Z M22.1314923,12.0209419 L21.2903071,12.0209419 L27.706031,0.43542433 L28.544967,0.43542433 L22.1314923,12.0209419 Z M23.2628189,3.22160165 C23.2628189,2.28838928 22.4542465,1.46509856 21.5006034,1.46509856 C20.5480848,1.46509856 19.7552566,2.27044289 19.7552566,3.22160165 C19.7552566,4.17388206 20.5627044,4.96240165 21.5006034,4.96240165 C22.4385024,4.96240165 23.2628189,4.15705732 23.2628189,3.22160165 Z M21.5006034,5.88103258 C20.0307785,5.88103258 18.8342263,4.67301608 18.8342263,3.22160165 C18.8342263,1.77243052 20.0307785,0.546467629 21.5006034,0.546467629 C22.9715529,0.546467629 24.1827246,1.75448412 24.1827246,3.22160165 C24.1827246,4.68871918 22.9715529,5.88103258 21.5006034,5.88103258 Z" id="Fill-39"></path>
                        </g>
                    </g>
                </g>
                <g id="Woman" filter="url(#filter-8)" transform="translate(185.000000, 101.000000)">
                    <path d="M102.816491,49.5122259 C101.866332,50.1884477 99.4563562,50.9799346 98.5715618,51.5082328 C98.0514845,51.8232907 97.6024561,52.0864793 97.3192082,52.2536137 C97.3068931,52.2622586 97.2936306,52.2689824 97.2936306,52.2689824 C97.1221662,52.374642 96.2961055,52.8251364 96.2544235,52.8366629 C96.3103152,52.8549132 96.6570334,53.1209834 96.9866998,53.9854715 C97.3409965,54.9075921 97.6488747,56.528027 97.5181449,59.2569277 C97.4669897,60.4057363 95.1470095,62.125107 94.3001078,62.8896987 C93.3840519,63.6975148 85.0163976,69.9842642 85.8244593,71.5 L83.9298246,69.4924666 C83.9298246,69.4924666 84.7407282,61.1876177 85.4360592,57.2321045 C85.9296115,54.4638215 89.7236176,52.6224619 93.1206976,51.2373599 C94.5852503,50.6504686 95.9806488,50.1336968 96.9904891,49.6668732 C100.337361,48.1223212 100.598821,48.2327836 103.329937,47.6775901 C103.789386,47.5824964 104.803963,48.1011893 102.816491,49.5122259" id="Fill-149" fill="#FFD8C0"></path>
                    <path d="M72.0545194,198 L19.3227092,198 C19.3227092,198 12.7939819,158.488581 19.3227092,144.508846 C24.8209829,132.738638 66.5760985,132.70706 72.0545194,144.487485 C78.2476402,157.809656 72.0545194,198 72.0545194,198" id="Fill-151" fill="#131D2E"></path>
                    <path d="M62.5972735,129.77799 C72.4588055,120.163097 88.890881,111.683522 96.475209,97.7856403 C99.4203293,92.3914896 72.8446916,71.7485967 63.5376921,62.6744199 C61.4348514,60.6239736 53.2245305,68.3909562 54.981503,70.7303416 C61.544424,79.4774875 84.4908274,96.2480379 84.4908274,96.2480379 C84.4908274,96.2480379 71.1601323,107.773088 55.9324024,123.115666 C53.8638627,125.198629 60.4944328,131.828436 62.5972735,129.77799" id="Fill-153" fill="url(#radialGradient-9)"></path>
                    <path d="M18.6062699,145.228883 C31.2528477,117.658164 7.77780271,98.5555877 24.9974903,61.1058359 C30.8112931,48.4638485 63.5561552,47.693508 67.2027549,61.1058359 C77.2113268,97.9411828 61.8361677,123.606126 72.5363199,143.984199 C79.0096242,156.307779 12.8047325,157.875539 18.6062699,145.228883 Z" id="Fill-155" fill="#289FFF"></path>
                    <path d="M51.2922778,106.232873 C49.8771782,106.69882 46.7720294,105.440395 45.5643151,104.582794 C39.1991821,100.059984 30.414867,89.8274803 27.784546,79.1950689 C25.3616102,69.3964103 34.1693852,67.934362 37.4509523,72.725918 C43.3665941,81.3633764 51.3673494,94.08338 51.3673494,94.08338 C51.3673494,94.08338 58.6370951,84.4993507 84.8079918,59.0419165 C86.8846598,57.0212813 94.7812533,63.7243233 92.7092773,65.7486273 C82.095092,76.1242172 63.2483679,102.285159 51.2922778,106.232873 Z" id="Fill-160" fill="url(#radialGradient-10)"></path>
                    <path d="M53.5784014,58.1993407 C52.7506871,61.6216923 39.8775265,61.0756734 40.1444441,57.5564628 C40.5353842,52.4029938 41.4125277,44 41.4125277,44 L54.7368421,45.1290722 C54.7368421,45.1290722 54.5364292,54.2328693 53.5784014,58.1993407" id="Fill-162" fill="#FFD8C0"></path>
                    <path d="M67.5087094,27.4634788 C67.5361529,53.8739087 58.5233489,51.2621192 47.4390384,51.2621192 C36.3547279,51.2621192 27.3684211,40.6083584 27.3684211,27.4634788 C27.3684211,14.3213417 36.3547279,3.66666667 47.4390384,3.66666667 C58.5233489,3.66666667 67.4926219,14.3213417 67.5087094,27.4634788" id="Fill-164" fill="#FFD8C0"></path>
                    <path d="M9.84566751,113.602408 C9.84566751,113.602408 0.659528387,112.870641 0,98.509758 C0,98.509758 5.58957425,99.9642439 7.63458673,100.731841 C9.68434402,101.498502 3.19800095,99.080713 4.74480854,88.8682178 C4.74480854,88.8682178 10.8620055,99.7061968 13.1423605,88.8682178 C14.7964007,81.0080651 14.7964007,81.0080651 18.3322321,57.791304 C21.1269243,39.4521944 19.3637534,13.5100443 30.1392136,3.8660007 C38.9190073,-3.99041214 55.7981892,1.53703195 62.4086565,7.9629662 C69.0181748,14.3860956 63.7637738,15.5847058 62.6648761,14.7712964 C58.6460233,11.7691612 54.0448876,21.7665862 49.6938981,22.9661313 C46.8292822,23.7560939 47.2001684,63.5841665 43.8042622,83.4006107 C37.9074142,117.810633 23.0068174,126.250457 9.84566751,113.602408 Z" id="Fill-166" fill="#131D2E"></path>
                </g>
                <g id="Man" filter="url(#filter-11)" transform="translate(326.000000, 81.000000)">
                    <path d="M52.4854296,175.880287 C48.9038494,176.502032 43.3562198,171.176603 41.7530469,168.113481 C41.0688617,166.811042 40.4060222,165.526399 39.7577877,164.198379 C36.9817259,158.522593 34.3977753,152.022634 30.7353062,139.585511 C28.0929358,130.63194 21.9566148,122.969685 20.9252815,121.722858 C20.7668741,121.804052 0.49971358,125.011766 0.441293827,125.158583 C-0.632730864,127.922511 17.4245901,152.732246 18.4649111,154.207083 C19.1805531,155.225899 24.1967877,162.502205 27.542442,168.097909 C29.3961457,171.194399 30.7375531,173.773695 30.5544296,174.496654 C30.0589852,176.519828 27.6963556,185.298777 27.5952444,185.774817 C27.4896395,186.255307 26.6448,188.385256 26.5436889,189.422981 C26.4549358,190.464042 27.0110469,191.809858 27.5705284,192.972154 C28.1300099,194.128889 27.712084,195.848419 28.049121,196.847215 C28.3928988,197.839338 28.5411951,201.47193 28.7692568,202.385083 C29.0006889,203.294899 29.0287753,205.532736 29.0287753,205.532736 L29.4950099,207.919613 L30.3679358,208.584736 C30.5072444,208.605868 31.8733679,208.56694 31.989084,208.531348 L31.9947012,208.528011 C32.4654296,207.421328 33.0720963,206.438103 33.1114173,205.268021 C33.1338864,204.57843 33.1788247,203.888838 33.2192691,203.199246 L33.5518123,198.312042 C33.5518123,198.312042 34.1023062,202.162634 34.5415778,202.498532 C35.0381457,202.870021 36.0189235,203.149195 36.6806395,203.28044 C36.9603802,203.333828 37.2412444,203.322705 37.486158,203.243736 C37.8355531,203.133623 38.1197877,202.88893 38.2568494,202.511879 C38.3984049,202.118144 38.5646765,201.727746 38.735442,201.342909 C39.0073185,200.727838 38.8713802,200.295174 38.7096025,199.71347 C38.6230963,199.394256 38.5253556,199.078379 38.4276148,198.760277 L37.5221086,195.855093 L35.6189728,191.834328 C35.6189728,191.834328 36.0234173,189.178287 36.3458494,188.86797 C36.6716519,188.557654 38.0366519,184.224348 38.0366519,184.224348 C38.0366519,184.224348 40.2801951,180.739685 41.2396272,179.065756 C41.7002444,178.251593 42.272084,177.797797 42.8237012,177.619838 C43.4146395,177.432981 43.986479,177.56645 44.3785654,177.924593 C45.4919111,178.927838 48.4252568,180.000042 52.1618741,179.727542 C52.8561704,179.676379 53.4347506,179.567379 53.9122198,179.413889 C57.1826025,178.369491 55.6187506,175.338623 52.4854296,175.880287" id="Fill-42" fill="#FFD8C0"></path>
                    <path d="M170.438506,126.171393 C171.392321,125.907791 174.672815,125.395046 175.510914,125.121434 C176.347889,124.850046 177.670198,124.763291 178.388086,124.65874 C178.565593,124.633158 178.729617,124.607577 178.888025,124.576434 C178.93184,124.568648 178.968914,124.561974 179.009358,124.553077 C179.118333,124.530832 179.226185,124.508587 179.320556,124.48523 C179.371111,124.474107 179.412679,124.46076 179.45537,124.448526 C179.540753,124.427393 179.625012,124.40626 179.700284,124.380679 C179.744099,124.368444 179.780049,124.356209 179.823864,124.340638 C179.890148,124.318393 179.960926,124.295036 180.022716,124.271679 C180.05979,124.257219 180.095741,124.24276 180.131691,124.227189 C180.187864,124.203832 180.24516,124.182699 180.294593,124.159342 C180.33279,124.14377 180.357506,124.127087 180.392333,124.110403 C180.433901,124.08927 180.479963,124.064801 180.524901,124.043668 C180.549617,124.025872 180.574333,124.010301 180.600173,123.99473 C180.636123,123.971372 180.674321,123.949128 180.708025,123.92577 C180.730494,123.912423 180.75184,123.89574 180.773185,123.876832 C180.803519,123.855699 180.831605,123.832342 180.856321,123.812321 C180.877667,123.795638 180.890025,123.784515 180.90463,123.765607 C180.931593,123.743362 180.951815,123.724454 180.970914,123.704434 C180.984395,123.68775 180.999,123.673291 181.012481,123.658832 C181.02821,123.638811 181.043938,123.621015 181.056296,123.603219 C181.068654,123.587648 181.078765,123.574301 181.08663,123.55873 C181.100111,123.542046 181.109099,123.52425 181.11921,123.509791 C181.124827,123.495332 181.132691,123.481985 181.139432,123.467526 C181.145049,123.457515 181.152914,123.441944 181.159654,123.429709 C181.165272,123.417474 181.167519,123.406352 181.173136,123.390781 C181.178753,123.381883 181.178753,123.367423 181.183247,123.359638 C181.185494,123.349628 181.185494,123.337393 181.192235,123.329607 C181.192235,123.321821 181.192235,123.315148 181.196728,123.30625 C181.198975,123.29624 181.204593,123.144974 181.212457,123.110495 C181.212457,123.096036 181.225938,123.086026 181.225938,123.071566 C181.230432,123.042648 181.238296,123.011505 181.245037,122.980362 C181.245037,122.958117 181.250654,122.938097 181.250654,122.915852 C181.251778,122.884709 181.254025,122.851342 181.254025,122.814638 C181.254025,122.810189 181.215827,122.347495 181.198975,122.297444 C181.196728,122.286321 181.183247,122.277423 181.178753,122.268526 C181.161901,122.210689 181.129321,122.149515 181.100111,122.090566 C181.088877,122.073883 181.078765,122.059423 181.068654,122.046077 C181.041691,121.994913 181.007988,121.947087 180.970914,121.895923 C180.961926,121.884801 180.951815,121.872566 180.941704,121.859219 C180.896765,121.803607 180.843963,121.746883 180.779926,121.694607 C180.767568,121.684597 180.75184,121.67125 180.738358,121.657903 C180.683309,121.615638 180.623765,121.57226 180.561975,121.533332 C180.541753,121.519985 180.524901,121.509974 180.506926,121.49774 C180.424914,121.451026 180.335037,121.406536 180.236173,121.36427 C180.220444,121.359821 180.199099,121.353148 180.18,121.345362 C180.093494,121.310883 179.999123,121.283077 179.898012,121.256383 C179.866556,121.247485 179.836222,121.239699 179.804765,121.233026 C179.681185,121.201883 179.547494,121.176301 179.402568,121.156281 C179.38684,121.156281 179.365494,121.154056 179.352012,121.152944 C179.217198,121.137372 179.073395,121.127362 178.919481,121.120689 C178.872296,121.118464 178.827358,121.118464 178.780173,121.115128 C178.735235,121.115128 178.695914,121.111791 178.652099,121.111791 C178.51279,121.111791 178.367864,121.118464 178.215074,121.12625 C177.591556,121.156281 176.960173,121.175189 176.33216,121.189648 L171.868667,121.285301 C171.868667,121.285301 171.941691,121.251934 172.061901,121.197434 L172.068642,121.19076 C172.125938,121.167403 172.195593,121.13626 172.268617,121.097332 C172.282099,121.092883 172.294457,121.090658 172.305691,121.082872 C172.380963,121.045056 172.466346,121.003903 172.556222,120.960526 C172.573074,120.953852 172.588802,120.948291 172.604531,120.939393 C172.698901,120.890454 172.797765,120.84374 172.90337,120.791464 C172.922469,120.77923 172.940444,120.773668 172.95842,120.762546 C173.065148,120.709158 173.177494,120.653546 173.29321,120.594597 C173.311185,120.583474 173.330284,120.576801 173.347136,120.566791 C173.463975,120.50673 173.583062,120.445556 173.703272,120.378821 C173.725741,120.367699 173.749333,120.355464 173.770679,120.344342 C173.890889,120.279832 174.015593,120.214209 174.134679,120.147474 C174.160519,120.136352 174.179617,120.124117 174.19984,120.112995 C174.32342,120.040699 174.449247,119.97174 174.572827,119.899444 C174.588556,119.890546 174.609901,119.876087 174.627877,119.869413 C174.75258,119.793781 174.87616,119.71926 174.99637,119.649189 C175.006481,119.638066 175.02558,119.630281 175.042432,119.62027 C175.162642,119.543526 175.279481,119.470117 175.390704,119.393372 C175.404185,119.385587 175.413173,119.380026 175.423284,119.371128 C175.53563,119.292158 175.647975,119.217638 175.747963,119.140893 L175.754704,119.74373 C175.864802,119.662536 175.96142,120.123005 176.044556,120.123005 L176.051296,120.123005 C176.135556,120.123005 176.207457,119.361117 176.268123,119.291046 C176.268123,119.291046 176.278235,118.977393 176.281605,118.972944 C176.341148,118.903985 176.384963,118.687097 176.41979,118.624811 C176.42316,118.615913 176.431025,118.535832 176.431025,118.535832 C176.461358,118.472434 176.989383,118.373444 176.989383,118.321168 C176.993877,118.316719 177.506173,118.274454 177.506173,118.274454 L177.506173,118.259995 C177.506173,118.225515 176.989383,118.191036 176.978148,118.161005 C176.943321,118.080923 176.645605,118.005291 176.597296,117.937444 C176.582691,117.911862 176.434395,117.895179 176.414173,117.870709 C176.381593,117.829556 176.281605,117.787291 176.240037,117.750587 C176.215321,117.72723 176.155778,117.709434 176.127691,117.687189 C176.08837,117.659383 176.032198,117.623791 175.989506,117.595985 C175.958049,117.578189 175.914235,117.564842 175.879407,117.547046 C175.836716,117.521464 175.78616,117.500332 175.737852,117.481423 C175.696284,117.46474 175.65584,117.452505 175.617642,117.44027 C175.563716,117.422474 175.514284,117.408015 175.458111,117.391332 C175.414296,117.384658 175.371605,117.374648 175.326667,117.364638 C175.270494,117.352403 175.210951,117.343505 175.151407,117.336832 C175.103099,117.330158 175.057037,117.324597 175.006481,117.317923 C174.945815,117.31125 174.884025,117.050985 174.819988,117.04876 C174.769432,117.046536 174.717753,116.78627 174.664951,116.78627 L174.600914,116.78627 C174.54137,116.78627 174.481827,117.044311 174.422284,117.046536 C174.393074,117.046536 174.362741,117.174444 174.331284,117.176668 C174.214444,117.181117 174.097605,117.255638 173.975148,117.267872 C173.944815,117.267872 173.912235,117.306801 173.878531,117.31125 C173.786407,117.32126 173.692037,117.350179 173.597667,117.361301 C173.551605,117.367974 173.50442,117.383546 173.458358,117.387995 C173.371852,117.402454 173.281975,117.421362 173.192099,117.438046 C173.146037,117.443607 173.103346,117.459179 173.057284,117.462515 C172.931457,117.486985 172.803383,117.517015 172.673062,117.544821 C172.646099,117.54927 172.616889,117.557056 172.588802,117.565954 C172.47758,117.591536 172.367481,117.614893 172.252889,117.646036 C172.20121,117.659383 172.149531,117.669393 172.100099,117.68274 C172.009099,117.707209 171.920346,117.730566 171.831593,117.755036 C171.776543,117.770607 171.724864,117.782842 171.670938,117.798413 C171.569827,117.827332 171.466469,117.855138 171.366481,117.887393 C171.328284,117.898515 171.290086,117.909638 171.253012,117.921872 C171.117074,117.960801 170.981136,118.001954 170.848568,118.044219 C170.795765,118.060903 170.74521,118.080923 170.692407,118.096495 C170.604778,118.122077 170.514901,118.154332 170.428395,118.181026 C170.372222,118.202158 170.316049,118.223291 170.258753,118.238862 C170.17337,118.270005 170.083494,118.301148 169.993617,118.331179 C169.946432,118.350087 169.897,118.364546 169.850938,118.383454 C169.720617,118.427944 169.59816,118.474658 169.472333,118.52026 C169.422901,118.539168 169.372346,118.556964 169.32516,118.57476 C169.238654,118.605903 169.158889,118.635934 169.075753,118.669301 C169.022951,118.688209 168.970148,118.710454 168.917346,118.729362 C168.838704,118.759393 168.761185,118.789423 168.68816,118.820566 C168.639852,118.838362 168.589296,118.858383 168.542111,118.877291 C168.433136,118.919556 168.326407,118.962934 168.225296,119.004087 C168.194963,119.015209 168.166877,119.028556 168.13879,119.040791 C168.045543,119.07527 167.95342,119.114199 167.863543,119.153128 C167.819728,119.172036 167.777037,119.190944 167.730975,119.207628 C167.666938,119.237658 167.604025,119.262128 167.539988,119.289934 C167.500667,119.30773 167.459099,119.325526 167.418654,119.342209 C167.351247,119.370015 167.288333,119.396709 167.22542,119.425628 C167.193963,119.438974 167.160259,119.453434 167.132173,119.467893 C167.040049,119.505709 166.960284,119.541301 166.886136,119.574668 C166.854679,119.588015 166.831086,119.60025 166.803,119.612485 C166.747951,119.63473 166.697395,119.660311 166.64684,119.680332 C166.618753,119.694791 166.596284,119.703689 166.570444,119.715923 C166.522136,119.738168 166.478321,119.757077 166.437877,119.777097 C166.417654,119.785995 166.397432,119.793781 166.379457,119.802679 C166.325531,119.826036 166.28284,119.847168 166.240148,119.869413 C166.216556,119.876087 166.200827,119.886097 166.179481,119.894995 C166.154765,119.908342 166.125556,119.920577 166.105333,119.930587 C166.097469,119.936148 166.091852,119.93726 166.083988,119.941709 C166.062642,119.949495 166.043543,119.958393 166.027815,119.968403 C166.018827,119.97174 166.01321,119.972852 166.007593,119.977301 C165.998605,119.98175 165.990741,119.985087 165.990741,119.985087 C165.990741,119.985087 163.577556,119.840495 163.294444,119.583566 C163.021444,119.322189 159.083728,118.471321 159.083728,118.471321 C159.083728,118.471321 155.945914,116.78627 154.431494,116.078883 C154.260728,116.001026 154.112432,115.908709 153.973123,115.813056 C153.940543,115.789699 153.90684,115.767454 153.878753,115.747434 C153.750679,115.647332 153.630469,115.546117 153.530481,115.440454 C153.517,115.424883 153.505765,115.408199 153.494531,115.394852 C153.404654,115.296974 153.329383,115.193536 153.266469,115.092321 C153.250741,115.070077 153.232765,115.04227 153.219284,115.017801 C153.155247,114.904352 153.101321,114.793128 153.069864,114.678566 C153.059753,114.656321 153.057506,114.636301 153.048519,114.611832 C153.023802,114.51173 153.004704,114.413852 153.001333,114.314862 C152.997963,114.298179 152.995716,114.280383 152.995716,114.261474 C152.992346,114.152474 153.009198,114.05126 153.035037,113.953383 C153.040654,113.928913 153.048519,113.910005 153.057506,113.88776 C153.084469,113.814352 153.119296,113.744281 153.164235,113.681995 C153.181086,113.660862 153.194568,113.636393 153.21479,113.61526 C153.278827,113.541852 153.350728,113.472893 153.443975,113.42173 C153.494531,113.393923 153.552951,113.351658 153.619235,113.301607 C153.649568,113.279362 153.685519,113.249332 153.713605,113.219301 C153.75742,113.188158 153.797864,113.157015 153.843926,113.113638 C153.88437,113.076934 153.930432,113.030219 153.976494,112.987954 C154.016938,112.945689 154.058506,112.907872 154.107938,112.858934 C154.15063,112.809995 154.203432,112.754383 154.252864,112.703219 C154.300049,112.649832 154.349481,112.600893 154.39779,112.540832 C154.449469,112.481883 154.503395,112.418485 154.555074,112.353974 C154.607877,112.291689 154.660679,112.23274 154.713481,112.162668 C154.767407,112.095934 154.821333,112.021413 154.874136,111.948005 C154.932556,111.874597 154.987605,111.805638 155.040407,111.725556 C155.095457,111.649923 155.153877,111.567617 155.205556,111.488648 C155.262852,111.404117 155.319025,111.324036 155.376321,111.235056 C155.429123,111.15275 155.481926,111.06377 155.535852,110.973679 C155.592025,110.883587 155.651568,110.79127 155.708864,110.690056 C155.76279,110.601077 155.811099,110.506536 155.861654,110.410883 C155.920074,110.306332 155.974,110.20623 156.029049,110.098342 C156.079605,110.000464 156.125667,109.898138 156.176222,109.796923 C156.226778,109.686811 156.281827,109.574474 156.330136,109.458801 C156.377321,109.355362 156.418889,109.247474 156.466074,109.139587 C156.513259,109.020577 156.559321,108.901566 156.60763,108.775883 C156.650321,108.664658 156.687395,108.552321 156.724469,108.438872 C156.76716,108.313189 156.808728,108.186393 156.846926,108.05626 C156.881753,107.936138 156.91321,107.819352 156.94579,107.69923 C156.980617,107.56576 157.014321,107.432291 157.042407,107.294372 C157.071617,107.17425 157.097457,107.047454 157.117679,106.92177 C157.143519,106.783852 157.167111,106.643709 157.187333,106.501342 C157.207556,106.373434 157.223284,106.243301 157.235642,106.110944 C157.253617,105.968577 157.263728,105.825097 157.272716,105.677168 C157.283951,105.544811 157.288444,105.409117 157.288444,105.271199 C157.294062,105.193342 157.298556,105.119934 157.298556,105.044301 C157.298556,104.900821 157.294062,104.752893 157.288444,104.606077 C157.28058,104.341362 157.253617,104.097781 157.214296,103.866434 C157.212049,103.853087 157.212049,103.836403 157.209802,103.818607 C157.171605,103.606168 157.125543,103.409301 157.068247,103.225781 C157.060383,103.204648 157.057012,103.180179 157.046901,103.16127 C156.992975,102.986648 156.926691,102.827597 156.853667,102.681893 C156.844679,102.662985 156.833444,102.637403 156.821086,102.619607 C156.750309,102.482801 156.668296,102.357117 156.584037,102.244781 C156.569432,102.228097 156.555951,102.210301 156.542469,102.190281 C156.45484,102.08573 156.362716,101.991189 156.266099,101.909995 C156.25037,101.898872 156.235765,101.885526 156.220037,101.874403 C156.121173,101.794321 156.020062,101.728699 155.914457,101.676423 C155.902099,101.667526 155.885247,101.663077 155.869519,101.656403 C155.76279,101.606352 155.651568,101.564087 155.539222,101.538505 C155.529111,101.536281 155.146012,101.401699 155.146012,101.401699 C155.014568,101.402811 154.892111,101.46176 154.770778,101.488454 L154.767407,101.510699 C154.646074,101.538505 154.525864,101.590781 154.411272,101.644168 C154.405654,101.648617 154.39779,101.654179 154.39779,101.654179 C154.280951,101.705342 154.171975,101.772077 154.071988,101.844372 C154.061877,101.852158 154.050642,101.858832 154.040531,101.864393 C153.94279,101.935577 153.85179,102.018995 153.763037,102.110199 C153.752926,102.121321 153.740568,102.131332 153.732704,102.142454 C153.649568,102.23477 153.570926,102.332648 153.504642,102.441648 C153.494531,102.456107 153.482173,102.468342 153.477679,102.485026 C153.408025,102.595138 153.349605,102.708587 153.300173,102.833158 C153.292309,102.849842 153.285568,102.86875 153.282198,102.884321 C153.232765,103.011117 153.197938,103.143474 153.170975,103.281393 C153.166481,103.301413 152.99684,103.320321 152.992346,103.340342 C152.968753,103.481597 152.790123,103.625077 152.790123,103.779679 L152.790123,103.806372 C152.790123,103.821944 152.959765,103.837515 152.959765,103.851974 C152.962012,103.983219 152.85416,104.114464 152.877753,104.254607 C152.893481,104.378066 152.790123,104.510423 152.790123,104.640556 L152.790123,104.733985 C152.790123,104.894148 152.977741,105.057648 152.954148,105.217811 C152.949654,105.24673 153.047395,105.271199 153.040654,105.299005 C153.011444,105.463617 153.021556,105.62823 152.969877,105.789505 C152.962012,105.817311 152.982235,105.841781 152.97437,105.865138 C152.921568,106.030862 152.868765,106.195474 152.797988,106.363423 C152.787877,106.384556 152.78563,106.405689 152.775519,106.425709 C152.698,106.59477 152.619358,106.762719 152.522741,106.927332 C152.518247,106.944015 152.510383,106.957362 152.503642,106.970709 C152.407025,107.140883 152.302543,107.312168 152.194691,107.479005 C152.190198,107.484566 152.18458,107.49124 152.182333,107.496801 C152.068864,107.662526 151.956519,107.829362 151.832938,107.99175 C151.828444,107.996199 151.82058,108.007321 151.81721,108.016219 C151.697,108.173046 151.572296,108.327648 151.447593,108.481138 C151.436358,108.494485 151.426247,108.508944 151.411642,108.520066 C151.291432,108.667995 151.168975,108.810362 151.045395,108.946056 C151.028543,108.961628 151.012815,108.98276 150.999333,108.998332 C150.878,109.130689 150.75442,109.260821 150.63758,109.382056 C150.619605,109.399852 150.600506,109.417648 150.584778,109.436556 C150.465691,109.556679 150.349975,109.670128 150.238753,109.781352 C150.219654,109.80026 150.202802,109.815832 150.185951,109.83474 C150.075852,109.942628 149.965753,110.041617 149.863519,110.138383 C149.845543,110.150617 149.829815,110.166189 149.814086,110.18176 C149.714099,110.275189 149.616358,110.360832 149.524235,110.439801 C149.50963,110.45426 149.495025,110.46427 149.484914,110.477617 C149.39616,110.55325 149.311901,110.623321 149.23663,110.686719 C149.226519,110.694505 149.213037,110.70674 149.206296,110.713413 C149.135519,110.774587 149.070358,110.826862 149.015309,110.87024 C149.009691,110.876913 149.002951,110.883587 148.998457,110.889148 C148.944531,110.928077 148.90184,110.963668 148.87263,110.984801 L148.864765,110.990362 C148.837802,111.011495 148.822074,111.024842 148.822074,111.024842 L139.718704,115.561689 L117.734901,126.523974 L116.983309,117.621566 L101.22121,117.731679 C101.22121,117.731679 85.2681235,163.211372 122.128741,143.922821 C122.324222,143.81827 122.509593,143.668117 122.714062,143.532423 C123.062333,143.301077 123.439815,143.051934 123.839765,142.784995 C123.995926,142.681556 124.154333,142.575893 124.314988,142.468005 C124.581247,142.29227 124.85537,142.113199 125.135111,141.927454 C125.273296,141.831801 125.412605,141.739485 125.558654,141.642719 C125.614827,141.603791 125.67437,141.565974 125.735037,141.525934 C125.861988,141.441403 125.991185,141.35576 126.123753,141.267893 C130.091802,138.632985 135.230494,135.211719 139.192926,132.560128 C139.253593,132.522311 139.310889,132.480046 139.371556,132.441117 C139.486148,132.362148 139.605235,132.283179 139.718704,132.208658 C140.010802,132.012903 140.291667,131.823821 140.568037,131.639189 C140.612975,131.609158 140.657914,131.579128 140.699481,131.551321 C140.77363,131.500158 140.846654,131.454556 140.918556,131.403393 C141.035395,131.324423 141.151111,131.246566 141.26458,131.170934 C141.272444,131.166485 141.280309,131.162036 141.289296,131.155362 C141.445457,131.051923 141.59937,130.948485 141.744296,130.849495 C141.751037,130.843934 141.757778,130.841709 141.762272,130.836148 C142.683506,130.219964 143.466556,129.690536 144.060864,129.284566 C144.079963,129.273444 144.095691,129.260097 144.11479,129.251199 C144.185568,129.201148 144.251852,129.153321 144.320383,129.109944 C144.354086,129.086587 144.385543,129.067679 144.415877,129.042097 C144.463062,129.009842 144.513617,128.975362 144.557432,128.946444 C144.592259,128.921974 144.622593,128.904179 144.654049,128.883046 C144.688877,128.854128 144.728198,128.829658 144.763025,128.806301 C144.793358,128.786281 144.819198,128.765148 144.847284,128.747352 C144.884358,128.722883 144.915815,128.697301 144.954012,128.675056 C144.971988,128.65726 144.99221,128.646138 145.006815,128.633903 C145.042765,128.611658 145.070852,128.591638 145.098938,128.57273 C145.110173,128.560495 145.125901,128.550485 145.138259,128.540474 C145.175333,128.514893 145.205667,128.492648 145.230383,128.472628 C145.316889,128.410342 145.411259,128.343607 145.51237,128.27576 C145.544951,128.252403 145.582025,128.230158 145.616852,128.205689 C145.685383,128.162311 145.750543,128.117821 145.823568,128.073332 C145.867383,128.04775 145.914568,128.021056 145.959506,127.994362 C146.026914,127.953209 146.097691,127.912056 146.167346,127.869791 C146.216778,127.841985 146.268457,127.815291 146.321259,127.786372 C146.388667,127.747444 146.461691,127.707403 146.536963,127.668474 C146.589765,127.639556 146.643691,127.612862 146.699864,127.586168 C146.775136,127.546128 146.853778,127.508311 146.929049,127.470495 C146.987469,127.444913 147.043642,127.415995 147.099815,127.389301 C147.17958,127.352597 147.255975,127.315893 147.339111,127.278077 C147.398654,127.252495 147.458198,127.223577 147.518864,127.196883 C147.59863,127.163515 147.679519,127.126811 147.762654,127.093444 C147.822198,127.067862 147.883988,127.044505 147.943531,127.021148 C148.030037,126.984444 148.116543,126.952189 148.205296,126.918821 C148.261469,126.896577 148.318765,126.875444 148.376062,126.853199 C148.473802,126.818719 148.57042,126.78424 148.66816,126.753097 C148.717593,126.736413 148.764778,126.720842 148.81421,126.704158 C148.955765,126.659668 149.097321,126.614066 149.24,126.574026 L149.251235,126.571801 C149.398407,126.530648 149.539963,126.490607 149.684889,126.458352 C149.72758,126.44723 149.771395,126.437219 149.814086,126.429434 C149.915198,126.406077 150.014062,126.384944 150.108432,126.36826 C150.161235,126.359362 150.212914,126.350464 150.262346,126.341566 C150.349975,126.328219 150.435358,126.315985 150.520741,126.302638 C150.574667,126.295964 150.63084,126.290403 150.683642,126.285954 C150.760037,126.277056 150.842049,126.270383 150.919568,126.264821 C150.97237,126.262597 151.026296,126.261485 151.080222,126.261485 C151.139765,126.257036 151.200432,126.257036 151.261099,126.258148 C151.426247,126.261485 151.585778,126.26927 151.735198,126.290403 C153.574296,126.571801 159.88363,127.769689 160.315037,127.823077 C160.315037,127.823077 160.859914,128.837444 170.438506,126.171393" id="Fill-44" fill="#FFD8C0"></path>
                    <path d="M90.6049926,36.1251582 C90.6049926,36.1118112 90.7195852,37.0549949 90.7195852,37.0549949 C90.6948691,36.9571173 90.4465852,34.6781276 90.4095111,34.5813622 C90.3971531,34.5313112 90.3994,34.4946071 90.3758074,34.4456684 C90.3128938,34.298852 90.2533506,34.1642704 90.1915605,34.0296888 C90.1792025,34.0052194 90.1679679,33.98075 90.1556099,33.9562806 C90.0938198,33.8584031 90.0320296,33.7482908 89.971363,33.6392908 C89.9444,33.6014745 89.9208074,33.5658827 89.8826099,33.5280663 C89.8331778,33.4424235 89.7848691,33.3690153 89.723079,33.2956071 C89.6860049,33.2466684 89.6478074,33.2110765 89.6118568,33.1743724 C89.5624247,33.1009643 89.501758,33.0264439 89.4512025,32.9652704 L89.1546099,32.67275 C89.1051778,32.6238112 89.0681037,32.5859949 89.0310296,32.5504031 C88.968116,32.500352 88.9063259,32.4514133 88.8456593,32.391352 C88.7962272,32.3657704 88.7580296,32.3290663 88.709721,32.2934745 L88.5243506,32.1466582 C88.4749185,32.1210765 88.436721,32.0854847 88.3884123,32.0610153 C88.3266222,32.0120765 88.2648321,31.9620255 88.2019185,31.9253214 C88.1524864,31.900852 88.1165358,31.8774949 88.0794617,31.8519133 C88.006437,31.8029745 87.9435235,31.7662704 87.8817333,31.7306786 C87.8435358,31.7050969 87.8075852,31.6817398 87.7581531,31.6683929 C87.696363,31.6194541 87.6222148,31.5838622 87.5604247,31.5593929 C87.5233506,31.5349235 87.4986346,31.5226888 87.4615605,31.4971071 C87.3885358,31.4604031 87.3244988,31.4359337 87.2514741,31.3992296 C87.2256346,31.3869949 87.202042,31.3747602 87.1638444,31.3625255 C87.1031778,31.3269337 87.0290296,31.301352 86.9672395,31.2657602 C86.9425235,31.2657602 86.916684,31.2524133 86.9054494,31.2401786 C86.8200667,31.2034745 86.7436716,31.1801173 86.6830049,31.1545357 C86.6706469,31.1434133 86.6571654,31.1434133 86.6571654,31.1434133 C86.5841407,31.1189439 86.5099926,31.0822398 86.4482025,31.0566582 C86.1763259,30.9710153 85.7426716,30.9220765 85.7426716,30.9220765 C85.7055975,30.4693929 85.3831654,30.0178214 85.3831654,29.5651378 L85.3831654,29.516199 C85.3831654,19.6661582 82.1094123,10.7848827 82.1094123,10.7848827 L53.1736593,13.9036173 C52.4074617,16.9022296 50.8997827,27.558648 50.8874247,27.8389337 C50.8503506,28.035801 50.9031531,28.1214439 50.878437,28.3160867 C50.866079,28.5129541 50.8683259,28.7698827 50.8548444,28.9901071 C50.8548444,29.0134643 50.8627086,29.3271173 50.8503506,29.3504745 C50.8503506,29.570699 50.8447333,30.0311684 50.8334988,30.0311684 L50.8076593,30.0311684 C50.671721,30.0311684 50.5234247,29.8031582 50.3638938,29.779801 C50.0167457,29.72975 47.9889062,29.5395561 47.9529556,29.5529031 C47.9035235,29.5529031 47.8428568,29.5284337 47.7934247,29.5406684 C47.7552272,29.5406684 47.7181531,29.5339949 47.681079,29.5462296 C47.6305235,29.5595765 47.5687333,29.561801 47.5193012,29.5740357 C47.4833506,29.5851582 47.4462765,29.5940561 47.4092025,29.6062908 C47.3597704,29.6174133 47.3103383,29.6407704 47.2609062,29.6641276 C47.2249556,29.6763622 47.199116,29.6885969 47.1609185,29.7008316 C47.0991284,29.7241888 47.0496963,29.7608929 46.9890296,29.7987092 C46.9643136,29.8087194 46.9519556,29.8087194 46.9272395,29.8209541 C46.8530914,29.8698929 46.7789432,29.9188316 46.7047951,29.9811173 C46.692437,29.993352 46.680079,30.0178214 46.6688444,30.0300561 C46.6194123,30.0778827 46.5564988,30.115699 46.5070667,30.1757602 C46.4823506,30.2013418 46.4699926,30.224699 46.4441531,30.2502806 C46.4082025,30.2992194 46.3711284,30.3481582 46.3340543,30.3959847 C46.3093383,30.4326888 46.2981037,30.4693929 46.2722642,30.5072092 C46.2486716,30.556148 46.2104741,30.6050867 46.185758,30.6662602 C46.161042,30.701852 46.1498074,30.7385561 46.1228444,30.7874949 C46.0992519,30.8486684 46.0734123,30.9109541 46.0498198,30.9843622 C46.0374617,31.0210663 46.0239802,31.0566582 46.0127457,31.1055969 C45.9880296,31.1801173 45.9745481,31.2657602 45.9633136,31.3380561 C45.9509556,31.3869949 45.9385975,31.423699 45.925116,31.4726378 C45.9138815,31.5838622 45.8049062,33.113199 45.8172642,33.2344337 C45.8296222,33.3211888 45.8959062,33.3934847 45.9082642,33.4791276 C45.9206222,33.6148214 45.9779185,33.7482908 46.003758,33.8828724 C46.016116,33.9696276 46.0520667,34.0541582 46.0644247,34.153148 C46.1014988,34.2877296 46.1374494,34.4334337 46.1745235,34.5813622 C46.200363,34.6781276 46.2104741,34.7637704 46.2351901,34.861648 C46.2351901,34.8738827 46.2486716,34.8872296 46.2599062,34.898352 C46.2722642,34.9595255 46.2846222,35.020699 46.3093383,35.0818724 C46.3587704,35.2542704 46.4082025,35.4366786 46.4576346,35.6213112 C46.4823506,35.7191888 46.5194247,35.8170663 46.5430173,35.9015969 C46.6059309,36.0739949 46.6564864,36.2564031 46.7295111,36.4521582 C46.7542272,36.537801 46.7789432,36.6245561 46.8160173,36.7224337 C46.9148815,36.9904847 47.0126222,37.2718827 47.1260914,37.5655153 C47.149684,37.627801 47.1755235,37.6889745 47.199116,37.750148 C47.2979802,37.9948418 47.3844864,38.2384235 47.4957086,38.495352 C47.5451407,38.6065765 47.5945728,38.7289235 47.6305235,38.8379235 C47.7305111,39.058148 47.8293753,39.2917194 47.9394741,39.535301 C47.9889062,39.6454133 48.0271037,39.7566378 48.0877704,39.8778724 C48.2371901,40.2215561 48.4102025,40.5874847 48.5832148,40.9556378 C49.3617704,42.6184439 50.5110667,43.5238112 51.153684,44.2945969 C51.3266963,45.3968316 51.5738568,46.3489133 51.8592148,47.1330459 C52.477116,48.8459031 53.5387827,50.2039541 54.7622272,51.2683724 C54.7622272,51.2683724 54.4285605,54.4872092 54.3532889,57.7905765 C54.3431778,58.1820867 54.3431778,58.5735969 54.3431778,58.9639949 C54.3431778,61.0071888 54.4779926,62.9402704 54.8992889,63.9935663 C56.4799926,67.8586173 62.0770543,69.8172806 67.4539185,69.8172806 C72.3971284,69.8172806 77.4459432,68.1644847 78.7446593,64.8744643 C79.2895358,63.4785969 79.7658815,60.5667398 79.7658815,57.9362806 L79.7658815,57.3734847 C79.7658815,54.8653724 79.3378444,52.7487704 79.3378444,52.7487704 C81.5004988,51.1827296 82.9115605,49.0538929 83.9867086,46.5713622 C84.5922519,45.9829847 85.2292519,45.2867194 86.0572395,44.4302908 C86.3549556,44.1355459 86.5796469,43.8419133 86.8402889,43.5616276 C86.9133136,43.4871071 86.966116,43.4148112 87.0267827,43.3402908 C87.2739432,43.0588929 87.5042519,42.7774949 87.7255728,42.5083316 L87.7345605,42.4972092 C87.9592519,42.2280459 88.1536099,41.9577704 88.3513383,41.7008418 C88.4007704,41.6396684 88.4378444,41.5784949 88.4884,41.5184337 C88.6737704,41.2615051 88.8568938,41.0045765 89.0186716,40.7598827 C89.0186716,40.747648 89.0310296,40.747648 89.0310296,40.734301 C89.191684,40.5029541 89.3264988,40.2582602 89.4635605,40.0380357 C89.4882765,39.97575 89.5253506,39.9145765 89.5624247,39.8656378 C89.6860049,39.6342908 89.8095852,39.4007194 89.9095728,39.1816071 C89.9208074,39.1816071 89.9208074,39.1693724 89.9208074,39.1571378 C90.0196716,38.9480357 90.1061778,38.7411582 90.192684,38.5320561" id="Fill-46" fill="#FFD8C0"></path>
                    <path d="M68.6054617,149.311314 C68.3279679,147.497243 66.6349185,146.400569 64.8441284,146.873273 L12.0944617,160.817488 C10.3036716,161.290192 9.01506667,163.168773 9.22964691,164.991743 L14.1335358,206.448447 C14.348116,208.271416 16.0119556,209.46708 17.8297086,209.106712 L72.6847333,198.21561 C74.5024864,197.855243 75.7618815,196.074539 75.4843877,194.260467 L68.6054617,149.311314 Z" id="Fill-48" fill="#1F6ABF"></path>
                    <path d="M65.4303481,150.096559 C65.1517309,148.282488 63.457558,147.184702 61.6667679,147.657406 L8.91934815,161.562692 C7.12743457,162.033171 5.83882963,163.911753 6.05453333,165.734722 L10.9572988,207.060182 C11.1730025,208.883151 12.8379654,210.079927 14.6545951,209.718447 L69.5084963,198.857376 C71.3251259,198.497008 72.584521,196.717416 72.3070272,194.903345 L65.4303481,150.096559 Z" id="Fill-50" fill="#1F6ABF"></path>
                    <path d="M85.6942506,31.9738153 L85.3830531,29.5646929 L85.3830531,29.5157541 C85.3830531,21.8457133 85.9773617,16.9751929 85.358337,13.0845602 C83.0743494,-1.27897041 77.1604728,6.13636633 77.1604728,6.13636633 C72.0071765,0.201427551 55.8586086,6.84375408 55.8586086,6.84375408 C55.8586086,6.84375408 55.5260654,7.19967245 54.9587198,5.8905602 C54.3902506,4.58144796 56.238337,3.34574388 56.238337,3.34574388 C54.0386086,2.29244796 52.3118556,5.8160398 52.3118556,5.8160398 C52.3118556,5.8160398 51.7321519,5.53575408 51.3737691,4.31228469 C51.0030284,3.08881531 52.4500407,1.35148878 52.4500407,1.35148878 C52.4500407,1.35148878 51.1771642,-0.777347959 46.6428926,4.82614184 C38.1405716,15.3602133 48.4471642,22.9312643 51.2400778,23.3238867 C51.3142259,23.3472439 51.3883741,23.3572541 51.4512877,23.3572541 L51.4625222,23.3572541 C51.4625222,23.3572541 51.2400778,25.328152 50.9929173,27.7016827 C50.9682012,27.8974378 50.9558432,28.162152 50.9322506,28.3579071 C50.9064111,28.5536622 50.8940531,28.7716622 50.869337,28.9918867 C50.869337,29.0163561 50.869337,29.0397133 50.856979,29.0641827 C50.856979,29.1987643 50.844621,29.319999 50.8199049,29.4545806 C50.8199049,29.5157541 50.8199049,29.5769276 50.8075469,29.638101 C50.5233123,32.5377235 50.2649173,35.7799173 50.3143494,37.4071316 C50.3637815,39.1811622 50.3267074,43.2909071 51.8220284,44.0383357 C65.2282383,50.6695398 70.9938185,49.0056214 83.9832259,45.4330908 C85.9717444,44.8825296 85.6942506,31.9738153 85.6942506,31.9738153" id="Fill-52" fill="#131D2E"></path>
                    <path d="M93.2084914,218 L18.2323556,218 C18.7761086,214.663265 19.0985407,211.676888 20.2219975,208.753908 L20.2219975,208.729439 L20.2219975,208.654918 L20.2219975,208.643796 C21.3454543,197.692633 24.436084,188.039459 28.1434914,177.872429 C28.1929235,177.726724 28.1693309,177.592143 28.2176395,177.444214 C28.2288741,177.40751 28.2299975,177.371918 28.255837,177.334102 C28.6760099,176.60002 29.3601951,175.878173 30.3847877,175.168561 C30.4106272,175.156327 30.4319728,175.132969 30.4578123,175.119622 C33.1383802,173.272184 37.6355778,171.535969 43.049516,170.043337 C43.0618741,170.031102 43.0607506,170.146776 43.0731086,170.146776 C50.462084,168.114704 59.4699605,166.836735 67.7869111,165.72449 L67.8003926,165.72449 L71.0381951,165.72449 L71.0494296,165.72449 C82.7165284,163.5 92.4973432,164.965939 92.7445037,167.887806 C92.8186519,168.80652 93.2466889,169.454959 93.2466889,170.385908 L93.2466889,170.398143 C94.3701457,185.287765 93.8994173,201.316327 93.2084914,218" id="Fill-54" fill="#131D2E"></path>
                    <path d="M118.468743,84.5871143 C115.663472,76.265298 86.1547556,60.0165122 86.1547556,60.0165122 C84.0864716,59.1289408 81.6991259,58.4159918 79.1589901,57.8776653 C67.982842,60.5414918 54.3485704,58.1801959 54.3530642,57.7875735 C25.4161877,62.8171449 18.2035951,71.3636347 18.2035951,71.3636347 C18.2035951,71.3636347 9.23840988,90.4842367 0.440619753,125.159584 C0.375459259,125.423186 0.773162963,125.561104 1.50228642,125.604482 C1.66294074,125.612267 1.83932346,125.616716 2.03143457,125.616716 C3.54810123,125.616716 5.97813827,125.346441 8.61489136,124.967165 C11.0842494,124.614584 13.7311136,123.958359 15.9746568,123.564624 C18.9540642,123.034084 21.2167062,122.346716 21.390842,122.346716 L21.4032,122.346716 L26.5025704,111.056318 C26.5025704,111.056318 28.085521,149.438778 28.085521,177.127002 C28.085521,181.436951 92.4652123,171.354451 92.4674593,171.33888 C94.7694222,161.706839 94.6222494,145.175543 97.3309037,135.04188 C99.1756198,128.13039 100.894509,121.599288 101.465225,119.221308 C101.465225,119.221308 107.160027,119.046686 107.295965,119.046686 C111.235928,119.046686 115.643249,118.416043 116.740867,118.246982 C116.909385,118.219176 117.006002,118.206941 117.006002,118.206941 C122.859212,87.0051347 118.468743,84.5871143 118.468743,84.5871143" id="Fill-56" fill="url(#linearGradient-12)"></path>
                </g>
            </g>
        </g>
    </g>
</svg>